<svg id="Layer_1" enable-background="new 0 0 511.961 511.961" height="512" viewBox="0 0 511.961 511.961" width="512" xmlns="http://www.w3.org/2000/svg"><path d="m450.194 352.762c-61.534-23.004-123.953-35.159-185.671-36.188 1.534-20.748 1.245-40.791-.857-59.913 18.968 10.008 40.805 12.916 63.297 8.135 77.918-16.563 137.434-82.416 144.401-163.321.497-5.769-2.162-11.356-6.952-14.609-60.799-41.292-142.366-41.661-205.376 2.834-39.3-67.533-121.143-105.037-201.398-83.724-5.596 1.485-9.953 5.879-11.392 11.487-29.438 114.725 60.018 216.139 131.452 216.139 16.541 0 32.366-4.594 46.483-12.854 7.872 27.249 11.259 59.512 8.225 96.291-56.805 2.604-114.092 14.585-170.632 35.723-91.136 34.071-79.037 121.332 28.115 142.707 110.21 21.99 221.982 21.99 332.191 0 106.898-21.325 119.443-108.563 28.114-142.707zm-11.839-244.528c-9.331 61.542-56.287 112.135-118.046 125.263-20.945 4.453-41.291-.733-56.559-16.267 32.138-37.129 63.791-58.108 108.553-72.063 8.437-2.631 13.143-11.602 10.513-20.037-2.63-8.438-11.604-13.138-20.037-10.514-37.405 11.661-67.475 28.221-95.215 53.015 5.222-15.406 6.231-31.281 3.262-46.808 48.417-38.365 114.747-43.552 167.529-12.589zm-293.219 83.78c-54.029-32.869-81.502-96.2-69.973-157.256 61.312-12.003 123.287 16.276 155.652 70.045 13.016 21.622 11.416 42.559 3.901 58.843-17.973-31.438-42.834-55.008-72.058-67.79-8.097-3.543-17.53.151-21.071 8.248-3.541 8.096.152 17.529 8.248 21.07 24.522 10.726 47.2 32.845 62.746 65.045-20.074 14.099-44.882 15.524-67.445 1.795zm270.682 272.074c-106.059 21.16-213.611 21.16-319.67 0-31.524-6.289-63.437-23.41-63.437-43.964 0-13.777 15.429-28.104 40.267-37.388 51.536-19.267 103.643-30.476 155.278-33.44-1.411 8.122-3.12 16.431-5.145 24.923-2.05 8.596 3.256 17.226 11.852 19.275 8.575 2.046 17.221-3.237 19.275-11.852 2.665-11.175 4.85-22.223 6.569-33.12 59.095.594 119.014 12.094 178.182 34.213 24.837 9.284 40.266 23.61 40.266 37.388 0 20.555-31.913 37.676-63.437 43.965z"/></svg>